<?xml version="1.0" encoding="UTF-8"?><svg xmlns="http://www.w3.org/2000/svg" viewBox="0 0 404.92 413.84"><defs><style>.d{fill:#886f62;}.e,.f{fill:#3a2b20;}.g{letter-spacing:.02em;}.f{font-family:Didot, Didot;font-size:11.83px;}.h{letter-spacing:-.07em;}.i{letter-spacing:.02em;}</style></defs><g id="a"/><g id="b"><g id="c"><g><path class="d" d="M213.47,50.68c5.69,4.85,9.22,10.76,7.27,18.44,.26-8.38-2.4-12.01-7.27-18.44h0Z"/><g><path class="d" d="M117.7,363.43c.01,3.09,2.91,12.12,7.06,8.2,1.12-1,1.84-2.36,2.71-3.63,3.55-4.97,7.27-10.24,12.87-13.08,12.99-6.26,24.37,1.55,31.56,12.37,3.51,5.06,6.49,10.42,10.46,15.04,5.17,5.79,11.28,11.97,19.24,13.13,10.4,.89,20,5.57,28.9,10.68-.55-.14-1.46-.76-2.01-1.02-2-1.06-4.11-2.16-6.15-3.09-6.93-3.22-14.33-5.46-21.96-6.05-7.71-1.55-13.66-7.41-18.71-13.07-6.07-6.98-9.8-15.57-16.33-22.09-6.38-6.76-16.1-9.41-24.66-5.22-5.48,2.67-9.25,7.87-12.81,12.67-.89,1.22-1.66,2.6-2.86,3.64-4.65,4.02-7.36-5.07-7.31-8.48h0Z"/><path class="d" d="M190.78,391.19c3.54,3.09,8.38,3.65,12.75,4.88,4.02,1.08,9.46,2.36,13.36,3.61,4.45,1.42,8.44,3.83,12.76,5.29,4.31,1.5,8.84,2.35,13.39,2.67,9.21,.74,18.36-1.29,27.59-.45,9.23,.66,18.36,2.77,26.87,6.35l-.11,.15-2.93-3.69,3.08,3.57,.24,.28-.35-.13c-8.61-3.26-17.69-5.21-26.85-5.69-9.21-.79-18.4,1.37-27.61,.6-4.63-.35-9.23-1.25-13.62-2.81-4.42-1.53-8.39-3.95-12.7-5.43-3.82-1.3-9.33-2.72-13.25-3.86-4.32-1.37-9.23-2.08-12.63-5.33h0Z"/><path class="d" d="M206.43,396.9c-7.98-2.02-12.59-10.06-14.91-17.38-1.81-5.62-3.1-11.4-6.15-16.49-.98-1.69-2.2-3.24-3.61-4.62,1.56,1.21,2.88,2.72,4.02,4.35,3.38,4.94,4.82,10.88,6.68,16.44,2.24,7.3,6.43,14.94,13.96,17.69h0Z"/><path class="d" d="M151.66,346.8c34.12-8.5,81.41,12.71,105.08,37.28,6.21,6.32,11.89,13.27,19.3,18.25-7.58-4.72-13.46-11.59-19.75-17.81-23.93-23.99-70.56-45.05-104.64-37.73h0Z"/><path class="d" d="M203.23,351.3c6.25,2.91,12.54,7.45,14.63,14.35,1.12,4.06,.91,8.34,1.84,12.4,1.57,8.12,5.04,15.88,10.02,22.5,1.64,2.23,3.48,4.32,5.44,6.3-2.11-1.81-4.04-3.85-5.82-6-5.33-6.52-8.94-14.36-10.61-22.61-1.22-5.49-.34-11.35-3.26-16.1-2.75-4.81-7.46-8.16-12.23-10.85h0Z"/><path class="d" d="M241.54,370.41c3.04,2.24,4.12,6.16,5.04,9.64,.89,3.55,1.99,7,3.45,10.34,2.22,4.9,4.71,9.98,9.03,13.34,1.41,1.13,3.07,1.93,4.85,2.38-7.66-1.16-11.89-8.9-14.8-15.32-1.46-3.39-2.56-6.95-3.28-10.55-.77-3.52-1.56-7.26-4.29-9.81h0Z"/><path class="d" d="M270.3,407.65c-5.45-3.76-12.67-7.85-13.33-15.14,2.03,6.8,8.73,10.24,13.33,15.14h0Z"/><path class="d" d="M228.07,405.44c-7.19-5.68-11.63-14.71-12.01-23.84-.01-.61-.01-1.22,0-1.82,.15,1.03,.38,2.54,.6,3.58,1.63,8.26,5.66,15.94,11.41,22.09h0Z"/><path class="d" d="M294.98,410.84c-7.98-7.5-9.36-18.94-13.08-28.72-5.67-15.33-16.56-28.57-30.23-37.47-3.23-2.09-6.64-3.91-10.14-5.55,3.59,1.43,7.06,3.17,10.4,5.13,14.08,8.6,25.26,22.01,30.81,37.58,3.65,9.82,4.68,21.17,12.25,29.03h0Z"/><path class="d" d="M250.29,343.16c-15.92-13.89-38.89-16.23-58.79-11.07-5.1,1.14-9.86,3.05-14.62,5.21-4.81,2.11-10.03,3.05-15.13,4.12-10,2.21-20.88,3.85-28.88,10.75,7.74-7.25,18.75-9.13,28.72-11.5,5.04-1.18,10.19-2.08,14.93-4.2,4.71-2.18,9.64-4.18,14.73-5.34,20.05-5.12,43.47-2.61,59.02,12.04h0Z"/><path class="d" d="M261.46,351.31c-5.4-.38-11,2.08-16.02,3.79-7.05,2.13-14.43,4.6-21.89,3.63-1.85-.31-3.65-.93-5.22-1.93,6.88,3.23,14.56,.67,21.52-1.06,7.1-1.65,14.14-5.58,21.62-4.44h0Z"/><path class="d" d="M219.33,328.96c-2.29-.29-4.71,2.2-6.49,3.32-5.18,3.57-10.96,6.48-17.19,7.66-1.24,.22-2.5,.38-3.75,.44,1.23-.29,2.45-.54,3.64-.92,6.01-1.69,11.55-4.63,16.88-7.82,2.12-1.11,4.31-3.29,6.9-2.67h0Z"/><path class="d" d="M271.1,361.98c-3.93-4.24-9.31-6.42-15.01-6.29-1.89-.04-3.86-.1-5.69-.69,2.87,.3,5.69-.28,8.57-.12,4.84,.28,9.6,2.94,12.12,7.1h0Z"/><path class="d" d="M246.38,375.18c3.64,3.61,9.12,2.88,13.83,2.91,6.52-.06,13.59,.68,18.8,5,1.26,1.08,2.38,2.33,3.19,3.75-1-1.3-2.17-2.44-3.49-3.36-3.96-2.85-8.84-3.91-13.65-4.25-6.12-.77-14.16,1.29-18.69-4.05h0Z"/><path class="d" d="M118.46,367.9c-3.36-9.6,2.02-19.33,5.74-27.99,.6-1.25,1.16-2.52,1.79-3.76-.42,1.33-.89,2.63-1.33,3.95-3.01,8.96-8.25,18.07-6.2,27.81h0Z"/><path class="d" d="M134.17,360.05c-1.94,2.14-4.51,5.27-6.52,7.32-2.41,2.4-5.45,1.63-5.24-2.07-.15-4.08-.27-8.31,1.1-12.22,.95-3.13,1.58-6.38,2.95-9.38,2.88-5.9,6.14-11.76,11.12-16.14,4.84-4.49,11.22-7.14,17.77-7.62-11.61,1.37-20.81,9.6-25.76,19.86-2.59,4.2-3.9,8.84-5.21,13.54-1.39,3.88-1.28,7.9-1.28,11.96-.11,1.55,.39,3.21,2.23,2.84,.72-.15,1.39-.62,1.99-1.13,2.32-2.23,4.53-4.66,6.84-6.96h0Z"/><path class="d" d="M125.27,361.2c4.62-6.52,10.58-13.22,18.71-15.05-7.63,3.17-12.95,9.37-18.71,15.05h0Z"/><path class="d" d="M122.75,364.04c2.01-11.36,8.42-21.51,16.3-29.77,4.47-5.13,8.78-10.8,14.87-14.1-1.91,1.26-3.65,2.73-5.25,4.35-2.82,2.74-6.36,7.29-8.94,10.34-7.72,8.33-14.07,18.1-16.99,29.18h0Z"/><path class="d" d="M170.59,317.08c-6.6,4.9-12.71,10.37-18.58,16.11-6.06,5.59-11.58,11.59-16.9,17.88,3.61-5.01,7.38-9.96,11.83-14.25l4.38-4.35c5.95-5.67,12.21-11.14,19.28-15.39h0Z"/><path class="d" d="M134.82,330.76c.77-3.51,.06-6.66-2.9-8.89-3.43-2.99-6.18-8.51-2.82-12.58,.76-.91,1.82-1.58,2.96-1.74-1.08,.38-1.99,1.1-2.57,2.03-2.69,3.94,.04,8.72,3.09,11.61,2.97,2.41,3.7,6.07,2.24,9.56h0Z"/><path class="d" d="M150.58,320.41c17.45-3.74,35.57-3.39,53.19-1.04,3.56,.47,6.97,1.82,10.24,3.22,4.87,1.89,10.09,3.76,15.38,3.45,1.73-.18,3.5-.84,4.64-2.24-1.05,1.47-2.84,2.26-4.6,2.51-5.36,.58-10.7-1.2-15.69-3-3.3-1.28-6.56-2.61-10.09-3.04-17.59-2.18-35.51-2.66-53.06,.14h0Z"/><path class="d" d="M233.85,323.78c-9.74-9.2-16.85-20.82-22.6-32.8-3-5.6-7.83-11.22-14.52-11.82-6.65-.31-12.59,3.71-18.4,6.46-7.86,4.13-15.42,8.82-22.67,13.94,7.02-5.46,14.51-10.32,22.31-14.62,5.92-2.97,11.94-7.01,18.84-6.74,9.68,.85,14.59,10.5,18.24,18.31,4.82,9.99,11.2,19.19,18.81,27.26h0Z"/><path class="d" d="M142.52,299.95c-3.29-.04-6.41,1.1-9.47,2.15-3.07,1.07-6.09,2.31-9.01,3.74-5.74,2.85-11.72,5.93-15.25,11.5-1.23,1.98-2.91,3.93-3.5,6.2-.4,3.91,2.11,7.69,4.9,10.27,4.84,4.37,12.46,4.84,18,1.43-5.44,3.86-13.41,3.55-18.5-.84-3.09-2.66-5.76-6.77-5.31-11.03,.6-2.5,2.28-4.45,3.59-6.59,3.66-5.63,9.82-8.9,15.75-11.62,2.99-1.35,6.06-2.52,9.19-3.51,3.12-.9,6.33-1.96,9.63-1.69h0Z"/><path class="d" d="M110.85,313.15c-5.43,9.43-3.41,13.37,6.4,17.26,1.03,.39,2.12,.6,3.25,.49-1.09,.33-2.27,.22-3.39-.02-10.39-2.88-13.34-8.96-6.26-17.73h0Z"/><path class="d" d="M137.6,300.24c17.84-2.06,39.24,0,54.95,9.25,3.17,2.13,5.96,4.64,9.05,6.75,6.1,4.31,12.94,7.67,20.31,9.24-7.47-1.16-14.5-4.4-20.75-8.61-3.19-2.04-6.01-4.59-9.11-6.62-15.69-8.99-36.62-11.13-54.45-10.01h0Z"/><path class="d" d="M160.56,300.02c12.29-5.23,22.57-1.99,32.95,5.53,3.79,2.61,7.23,5.9,11.69,7.26,2.17,.69,4.56,.87,6.79,.19-2.17,.9-4.65,.84-6.92,.29-4.6-1.19-8.27-4.38-12.08-6.99-10.56-7.35-19.79-10.45-32.43-6.27h0Z"/><path class="d" d="M173.96,297.63c6.23,.24,10.88-4.57,16.03-7.41,3.87-2.3,8.72-4,13.21-2.52,1.45,.49,2.83,1.29,3.83,2.42-1.16-.97-2.53-1.63-3.97-1.95-7.71-1.79-13.94,4.24-20.34,7.55-2.66,1.37-5.75,2.57-8.77,1.91h0Z"/><path class="d" d="M214.24,297.04c-1.19-1.45-3.29-.98-4.9-.72-3.43,.8-6.98,2.55-10.63,1.88-1.83-.27-3.58-.97-5.04-2.03,1.66,.72,3.39,1.13,5.13,1.26,3.63,.35,6.85-1.36,10.42-1.87,1.69-.17,4.15-.28,5.03,1.48h0Z"/><path class="d" d="M207.89,297.9c-3.49,1.82-7.19,3.18-10.96,4.26-3.62,1.1-8.41,1.8-11.37-1.16,3.41,2.22,7.46,1.27,11.09,.2,3.75-1.05,7.46-2.22,11.23-3.3h0Z"/><path class="d" d="M150.25,321.08c2.21-3.24,4.65-6.29,7.15-9.29,2.35-2.84,5.5-6.9,9.75-5.56-4.28-.43-6.56,3.35-8.98,6.21-2.52,2.98-5.1,5.91-7.91,8.65h0Z"/><path class="d" d="M189.34,309.09c-1.08-.96-2.56-.77-3.89-.73-4.14,.25-7.94,1.91-11.16,4.61,2.42-3.56,6.88-5.58,11.15-5.39,1.36,.08,3.11,.24,3.9,1.51h0Z"/><path class="d" d="M147.92,299.49c-4.38,.65-8.32,3.11-11.68,5.86-2.46,2.06-4.25,5.22-3.36,8.45,.24,1.06,.83,2.02,1.67,2.76-.98-.56-1.73-1.53-2.14-2.61-2.83-7.86,8.87-14.63,15.5-14.46h0Z"/><path class="d" d="M120.35,283.41c.07-2.35-.33-4.63-.13-6.99,.5-5.9,3.89-11.49,8.87-14.69,.99-.63,2.05-1.16,3.13-1.58-.98,.63-1.97,1.22-2.84,1.98-4.47,3.53-7.5,8.77-8.39,14.38-.37,2.23-.13,4.61-.63,6.9h0Z"/><path class="d" d="M70.3,238.64c10.12,20.41,28.55,10.59,40.68,23.91,1.49,1.83,2.61,4.02,2.91,6.34-.53-2.28-1.71-4.35-3.28-6.02-12.29-12.43-31.56-3.03-40.31-24.23h0Z"/><path class="d" d="M72.02,210.06c.07,6.23,5.4,9.93,9.85,13.46-5.18-2.19-11.33-7.12-9.85-13.46h0Z"/><path class="d" d="M120.81,276.94c1.62-23.99-2.9-48.32-13.03-70.13l-2.09-4.34,2.33,4.22c11.08,21.42,15.74,46.29,12.79,70.24h0Z"/><path class="d" d="M110.07,210.28c-8.52-19.85-24.98-36.07-45.09-44-2.85-1.14-5.85-2.04-8.97-1.89,3.1-.38,6.21,.44,9.14,1.43,20.5,7.28,37.54,23.97,44.92,44.46h0Z"/><path class="d" d="M131.66,220.46c12.57,22.37,8.27,49.49,1.26,72.95-1.03,3.41-2.06,6.82-3.17,10.2l2.7-10.33c6.29-23.62,10.55-50.04-.79-72.82h0Z"/><path class="d" d="M126.71,304.42c-2.5-3.39-7.82-12.72-4.37-16.45-1.38,2.76,.14,5.63,1.06,8.28,1.03,2.74,2.19,5.41,3.31,8.16h0Z"/><path class="d" d="M120.87,291.87c-6.25-6.76-14.72-10.25-23.66-11.72-1.26-.35-2.51-.74-3.65-1.39,1.22,.43,2.47,.73,3.75,.91,9.08,.7,18.25,4.51,23.56,12.2h0Z"/><path class="d" d="M123.54,306.27c-3.83-10.82-7.83-14.17-18.09-18.88-6.18-3.08-11.81-7.3-16.37-12.49-1.5-1.74-2.92-3.55-4.16-5.47,1.43,1.79,2.91,3.52,4.52,5.14,4.75,4.89,10.33,8.95,16.46,11.93,10.19,4.82,14.68,8.53,17.64,19.77h0Z"/><path class="d" d="M52.92,164.72c4.94,1.45,10.32,3.28,13.5,7.65,5.06,7.22,6.9,16.41,6.36,25.12-.56,6.98-2.27,13.75-3.24,20.66-.52,3.43-.96,6.89-1.3,10.34-.34,3.4-.51,7.08,1.41,10.08-2.12-2.88-2.09-6.7-1.9-10.12,.46-10.43,3.07-20.73,4.03-31.03,.71-9-1.82-22.66-9.48-28.28-2.79-2.03-6.12-3.21-9.37-4.41h0Z"/><path class="d" d="M67.78,232.2c2.6,16.56,10.75,32.13,22.9,43.68,1.29,1.24,4.02,3.62,5.42,4.73l-2.94-2.1c-14.32-11.03-23.94-28.26-25.39-46.31h0Z"/><path class="d" d="M51.47,163.64c14.07-7.24,30.49-.16,42.26,8.46,8.06,6.01,16.32,11.88,22.99,19.49,9.93,11.58,14.43,26.54,18.51,40.92-3.12-9.5-6.16-19.11-10.87-27.96-4.55-8.97-11.34-16.43-19.28-22.53-14.69-11.89-33.87-27.14-53.61-18.38h0Z"/><path class="d" d="M89.56,170.98c2.71,1.62,4.13,5.33,3.18,8.35-.53-3.11-1.5-5.68-3.18-8.35h0Z"/><path class="d" d="M96.66,174.38c2.68,3.61,1.92,9.49-1.58,12.31,2.28-3.79,2.84-8.06,1.58-12.31h0Z"/><path class="d" d="M118.08,193.94c1.4,1.01,1.45,3.02,1.61,4.57,.38,4.6,1.21,10.97-3.55,13.63,3.85-3.47,2.68-8.97,2.77-13.6-.04-1.59,.25-3.29-.83-4.61h0Z"/><path class="d" d="M125.57,205.97c.81,7.05-.51,16.06-7.41,19.73,5.92-4.85,6.72-12.58,7.41-19.73h0Z"/><path class="d" d="M111.86,217.33c-4.06-8.37-6.4-11.79-15.8-13.9-5.4-1.72-10.58-4.26-14.95-7.88-1.4-1.26-2.64-2.84-3.07-4.68,.65,1.77,1.93,3.19,3.39,4.3,4.46,3.29,9.66,5.62,14.93,7.3,9.46,2.19,12.27,6.03,15.51,14.86h0Z"/><path class="d" d="M71.95,179.85c2.14,1.5,4.08,3.21,5.96,4.98,1.67,1.76,4.47,3.73,3.95,6.51-.15-2.38-3.16-4.24-4.64-5.78-1.86-1.79-3.67-3.64-5.27-5.71h0Z"/><path class="d" d="M118.96,250.49c-3.33-13.12-22.67-12.29-26.17-21.89-.49-1.66-.47-3.47,.17-5.03-.42,1.63-.32,3.36,.29,4.87,.56,1.54,1.69,2.77,3.02,3.71,2.7,1.87,5.8,3.19,8.85,4.57,5.94,2.59,12.91,6.69,13.83,13.76h0Z"/><path class="d" d="M137.94,240.88c1.81,3.94-2.01,10.33-5.48,12.32,2.25-2.73,3.99-5.62,5.04-8.96,.34-1.09,.67-2.19,.44-3.36h0Z"/><path class="d" d="M213.08,274.59c-.34,.85-1.11,1.43-1.75,2.03-1.39,1.17-1.65,3.41,.68,3.24,8.19-.45,16.54,3.19,21.69,9.6,1.71,2.12,3.13,4.47,4.09,7.02,.18,.64,.66,1.29,.49,1.97-.11,.23-.52,.24-.55-.02,.06,.25,.43,.17,.48-.01,.07-.2-.02-.41-.11-.61-2.62-6.09-7.38-11.3-13.33-14.26-3.94-2.01-8.35-3.02-12.78-3.06-2.81,.03-2.74-2.75-.84-4.07,.7-.57,1.49-1.03,1.92-1.83h0Z"/><path class="d" d="M214.09,273.74c3.09,.52,6.23,.66,9.3,1.53,6.9,1.89,12.94,6.72,16.36,13,1.11,2.3,3.4,3.23,5.74,4.04-1.12,1.38-2.27,2.74-3.56,3.97-1.06,.91-2.01,2.1-3.28,2.7-.19,.06-.47,.02-.51-.21,.07,.22,.32,.22,.5,.15,.39-.1,1.05-.91,1.35-1.17,.57-.57,1.12-1.16,1.65-1.76,1.06-1.21,2.09-2.44,3.03-3.74l.16,.52c-1.48-.48-3.07-.96-4.34-2.1-1.22-1.12-1.8-2.62-2.74-3.92-3.5-5.08-8.68-8.93-14.54-10.87-2.94-.97-6.08-1.33-9.11-2.16h0Z"/><path class="d" d="M295.64,331.32c-1.77-.76-3.18,.45-4.43,1.59-.92,.88-2,1.69-2.7,2.76-.21,.35-.34,.75-.19,1.2-.36-.32-.4-.91-.27-1.38,.84-2.35,5.14-6.72,7.59-4.16h0Z"/><path class="d" d="M255.8,337.43c-4.79-3.4-7.98-9.17-8.06-15.08,.19-3.59,2.28-6.67,3.78-9.81-.35,1.11-.75,2.2-1.13,3.29-.78,2.1-1.72,4.28-1.7,6.53,.25,5.69,3.1,11.07,7.12,15.07h0Z"/><path class="d" d="M268.23,346.51c-6.64-.49-13.74-3.19-17.61-8.93-2.4-3.88-4.52-7.93-5.29-12.48-.28-2.31,.05-4.6,.48-6.8,.66-4.08,2.4-9.42-1.18-12.58,3.95,2.87,2.47,8.62,1.94,12.71-.31,2.2-.65,4.41-.34,6.55,.79,4.23,2.94,8.41,5.14,12.09,3.74,5.62,10.39,8.37,16.86,9.45h0Z"/><path class="d" d="M244,293.24c3.26-2.98,8.07-1.03,11.93-.95,11.74,.8,26.29-1.83,34.92,8.2-9.35-9.09-23.19-6.21-34.99-7.44-3.93-.23-8.34-2.41-11.86,.19h0Z"/><path class="d" d="M269.03,294.11c-5.28,.79-10.11,2.38-14.83,4.85,3.88-3.64,9.55-5.48,14.83-4.85h0Z"/><path class="d" d="M289.49,298.69c5.63,4.06,10.49,9.95,11.42,17.05,.47,3.52-.14,7.02-.44,10.51-.56,3.66-.62,12.37-2.42,15.59-1.7,3.27-5.41,5.33-9.07,5.04-1.79-.1-3.47-.46-5.1-.1-3.33,.64-6.13,3.04-9.56,4.01-3.4,.96-7.1,.81-10.33-.52,3.3,1.11,6.93,1.14,10.19,.05,3.28-1.01,5.97-3.48,9.55-4.3,1.8-.44,3.63-.09,5.3,0,5.53,.34,9.23-4.22,9.42-9.48l1.12-10.38c.33-3.47,.92-6.93,.58-10.32-.73-6.94-5.38-12.83-10.66-17.14h0Z"/><path class="d" d="M238.19,298.29c6.55,9.19,1.01,21.5,5.08,31.49,.93,2.47,2.5,4.64,4.25,6.66,3.57,3.96,7.02,8.28,11.75,10.89,2.32,1.31,4.96,2.14,7.67,2.15-2.71,.22-5.45-.52-7.9-1.71-4.91-2.49-8.57-6.72-12.21-10.73-1.79-2.04-3.48-4.29-4.49-6.9-1.96-5.19-1.68-10.81-1.47-16.22,.13-5.29,.35-11.03-2.68-15.63h0Z"/><path class="d" d="M289.81,305.34c-2.49-2.01-4.55-4.74-7.29-6.34-2.71-1.4-6.3-1.66-9.18-.4,2.68-2.05,6.7-2.01,9.67-.47,2.94,1.76,4.78,4.57,6.8,7.22h0Z"/><path class="d" d="M291.26,310.12c.56-.57,1.18,.22,.48,.62-.78-.12-.56,.17-.48-.62h0Z"/><path class="d" d="M293.34,314.44c1.03-.24,1.77,1.07,1.03,1.83-.77-.69-.84-.82-1.03-1.83h0Z"/><path class="d" d="M207.3,284.55c.31-2.25,2.28-4.21,4.54-4.5-1.63,1.6-2.93,2.88-4.54,4.5h0Z"/><path class="d" d="M200.27,279.58c2.26-3.98,6.22-6.37,9.53-9.38-2.3,3.96-6.25,6.33-9.53,9.38h0Z"/><path class="d" d="M246.9,237.26c-11.11,2.4-14.91,4.56-18.34,15.67-2.45,6.16-5.83,11.94-10.07,17.03-.71,.84-1.45,1.66-2.19,2.47l-1.14,1.19c-.35,.36-.97,.86-1.46,.48,.51,.32,1.04-.21,1.35-.58l1.05-1.26c4.8-5.93,8.79-12.57,11.53-19.69,1.23-3.02,2.14-6.38,4.25-9.01,3.64-4.44,9.63-5.62,15.02-6.29h0Z"/><path class="d" d="M233.44,280.65c3.89,1.09,8.82,2.21,11.88-1.15,.6-.59,1.27-1.31,2.27-1.62,2.02-.56,3.85,.96,4.76,2.59,.97,1.66,1.97,6.13-.98,6.22-1.39-.1-2.73-.65-3.8-1.48-.68-.57-1.43-.31-2.23-.24-2.48,.32-5.32,.88-7.76,.13,2.49,.45,5.22-.32,7.66-.75,.87-.17,2.01-.39,2.76,.23,1.02,.69,2.19,1.14,3.39,1.21,1.17-.04,.96-1.59,.87-2.55-.3-2.1-2-4.91-4.41-4.43-.69,.18-1.29,.75-1.92,1.34-3.34,3.44-8.61,2.18-12.49,.52h0Z"/><path class="d" d="M214.59,273.69c.28-7.08-.87-14.12-3.49-20.69-2.76-6.57-3.97-13.82-3.52-20.93,.09,1.77,.22,3.54,.47,5.29,.61,5.28,1.93,10.39,3.99,15.28,2.62,6.63,3.62,13.99,2.55,21.04h0Z"/><path class="d" d="M188.3,245.67c7.29,1.53,15.18,3.82,19.79,10.18,4.7,6.39,2.96,15.5-1.73,21.36-.39,.14-.86-.18-.98-.54,.17,.41,.67,.49,.88,.47,1.02-1.57,1.84-3.26,2.48-4.99,5.44-16.01-7.18-22.65-20.44-26.47h0Z"/><path class="d" d="M211.22,254.7c-10.55-18.26-26.62-33.5-32.75-54.15-2.28-6.66-2.58-13.99-6.36-20.06,2.09,2.87,3.24,6.3,4.19,9.68,1.68,6.84,3.79,13.54,6.83,19.89,7.56,15.95,20.16,28.87,28.08,44.64h0Z"/><path class="d" d="M173.29,183.6c-2.21-4.39-4.09-8.95-5.71-13.61-4.27-12.29-5.97-27.59-18.28-34.7-1.07-.58-2.19-1.07-3.36-1.48,15.64,4.31,18.28,22.65,22.37,35.94,1.46,4.68,3.14,9.29,4.98,13.85h0Z"/><path class="d" d="M135.47,122.12c5.01,4.41,11.61,6.03,17.74,8.26,6.19,2.27,12.14,5.19,17.76,8.65,5.62,3.46,10.85,7.56,15.65,12.09,4.74,4.57,9.3,9.5,12.43,15.41,6.24,11.83,7.14,25.5,7.09,38.62,.05,6.57-.02,13.15,.63,19.68,.67,6.53,.7,13.18,2.55,19.51-2.01-6.28-2.21-12.97-3.04-19.46-.75-6.56-.77-13.16-.91-19.72-.13-13.02-.95-26.47-7.2-38.16-6.36-11.39-16.81-20.19-27.6-27.32-5.53-3.51-11.4-6.49-17.52-8.85-6.06-2.38-12.68-4.19-17.57-8.72h0Z"/><path class="d" d="M134.88,122.79c10.33,9.01,6.86,24.5,5.38,36.43-.86,6.32-1.81,12.65-2.6,18.95-.36,3.15-.41,6.33,.17,9.45,.51,3.13,1.48,6.18,2.39,9.24-2.36-5.94-4.09-12.32-3.32-18.76,.52-5.52,1.7-13.43,2.38-19.01,1.52-12.05,5.26-26.66-4.39-36.29h0Z"/><path class="d" d="M138.98,193.6c10.8,22.55,19.3,39.74,43.86,49.53,2.97,1.33,6.01,2.51,9.02,3.77-6.17-2.1-12.33-4.31-18.15-7.34-18.14-8.94-27.46-28.08-34.73-45.96h0Z"/><path class="d" d="M200.76,240.48c-1.95-1.53-4.55-1.15-6.88-1.33-4.81-.19-9.7-.48-14.36-1.85-2.3-.7-4.68-1.59-6.44-3.29,6.24,3.7,13.85,3.47,20.85,4.37,2.3,.34,5.14,.21,6.82,2.09h0Z"/><path class="d" d="M148.04,210.98c1.11,1.06,2.18,2.17,3.44,3,1.23,.87,2.65,1.34,4.14,1.62,2.99,.49,6.06,1.02,9.04,1.77,4.49,1.1,8.87,2.58,13.13,4.38,1.4,.63,2.81,1.25,4.17,1.96-5.77-2.06-11.59-3.92-17.54-5.37-4.31-1.37-9.47-1.21-13.22-3.97-1.22-1-2.21-2.18-3.15-3.39h0Z"/><path class="d" d="M140.31,196.92c2.6,1.7,4.17,4.52,5.91,7,2.72,4.38,8.07,5.74,12.96,5.97-5.05,.79-11.05-.76-13.75-5.46-1.58-2.47-3-5.47-5.12-7.52h0Z"/><path class="d" d="M137.35,171.09c4.69,5.64,10.76,10,17.59,12.67,3.4,1.41,6.91,2.97,9.66,5.49,2.81,2.47,5.07,5.43,7.08,8.51-1.18-1.41-2.34-2.84-3.61-4.17-3.64-4.2-8.32-6.98-13.52-8.92-6.87-2.71-13.09-7.43-17.2-13.59h0Z"/><path class="d" d="M175.62,183.87c-.92-2.1-.94-4.56-.19-6.74,.76-2.26,2.41-3.95,3.56-5.79,1.8-2.76,3.18-5.85,3.68-9.12,.2-1.09,.25-2.21,.24-3.34,.24,1.1,.29,2.25,.25,3.38-.19,3.43-1.45,6.76-3.33,9.62-1.25,1.93-2.84,3.53-3.69,5.51-.85,1.98-1.03,4.27-.53,6.46h0Z"/><path class="d" d="M167.32,137.67c4.54,4.91,.67,11.86,.89,17.6-.44-1.46-.5-3.03-.38-4.54,.33-4.37,1.84-9.01-.51-13.06h0Z"/><path class="d" d="M141.24,147.65c4.46,6.87,10.86,12.41,18.36,15.71l1.62,.69c.55,.2,1.1,.41,1.65,.63-.58-.12-1.16-.24-1.74-.38-8.62-2.25-16.24-8.51-19.89-16.65h0Z"/><path class="d" d="M138.98,163.19c1.39,1.4,2.09,3.32,3.2,4.82,3.29,4.7,8.55,7.75,14.22,8.53-5.93,.37-11.87-3.03-14.88-8.11-1.07-1.7-1.47-3.62-2.54-5.24h0Z"/><path class="d" d="M199.84,170.59c2.14,4.22,2.12,9.42,.86,13.93-2.28,5.77-5.67,11.26-8.58,16.73-.79,1.35-1.54,2.72-2.36,4.06,.61-1.44,1.28-2.85,1.92-4.28l2.02-4.23c1.92-4.23,4.39-8.28,6.11-12.58,1.34-4.34,1.59-9.3,.04-13.62h0Z"/><path class="d" d="M205.22,187.49c-3.07,13.86-11.01,26.96-9.69,41.54-2.72-14.56,5.3-28.12,9.69-41.54h0Z"/><path class="d" d="M167.73,72.73c1.64,3.25-.43,7.91-3.98,8.84,2.69-2.28,4.06-5.32,3.98-8.84h0Z"/><path class="d" d="M184.4,69.59c.51-.56,.95-.46,1.11,.29-.51,.57-.94,.45-1.11-.29h0Z"/><path class="d" d="M189.79,72.02c1.31,.12,2.29,.95,2.6,2.24-1.29-.31-2.1-1.01-2.6-2.24h0Z"/><path class="d" d="M196.58,76.08c2.16,1.68,4.77,3.07,6.06,5.63,1.57,4.33,1.71,9.15,.88,13.63-.13-4.48-.38-9.02-1.74-13.25-1.11-2.4-3.53-3.98-5.2-6.01h0Z"/><path class="d" d="M167.45,111.24c3.83,2.5,8.13,4.02,12.4,5.53,3.18,1.08,6.54,1.85,9.86,1.13,1.1-.21,2.16-.62,3.16-1.18-.87,.75-1.93,1.28-3.03,1.66-3.37,1.08-7.05,.46-10.3-.65-4.3-1.55-8.69-3.33-12.08-6.47h0Z"/><path class="d" d="M157.64,100.55c3.92,12.32,16.32,20.82,29.23,19.82,4.24-.17,8.65-.83,12.81,.31-4.27-.72-8.5,.11-12.77,.45-13.14,1.47-26.38-7.59-29.28-20.58h0Z"/><path class="d" d="M240.67,150.58c5.78-6.32,16.31-5.96,22.82-1.03-7.28-3.55-16.12-4.01-22.82,1.03h0Z"/><path class="d" d="M232.47,238.24c3.51-5.2,10.68-3.35,15.95-4.21-1.3,.6-2.73,.91-4.14,1.07-4.07,.47-8.58,.19-11.81,3.14h0Z"/><path class="d" d="M231.41,160.71c.24,21.69,4.35,61.4-5.89,80.19,3.15-6.01,3.81-12.9,4.72-19.53,2.37-20.14,.43-40.45,1.16-60.67h0Z"/><path class="d" d="M229.26,229.29c-.42,5.77-2.08,11.48-4.94,16.49-2.68,5.21-5.55,10.45-9.53,14.8,.22-1.82,.32-2.87,.26-.32l-.2-.08c3.37-4.66,5.94-9.77,8.59-14.86,2.91-5.03,4.66-10.37,5.82-16.04h0Z"/><path class="d" d="M264.69,196.23c2.32,7.31,1.67,15.22-3.56,21.15-2.39,2.89-5.26,5.31-8.23,7.5-1.47,1.1-2.94,2.2-4.04,3.63-1.11,1.4-1.86,3.18-1.68,5.04-.42-1.83,.25-3.77,1.28-5.32,1.08-1.56,2.55-2.77,3.97-3.94,9.96-7.88,14.96-14.95,12.27-28.05h0Z"/><path class="d" d="M271.44,210.31c.87,4.45,1.29,8.99,1.33,13.54,.13,4.57-.19,9.48-3.13,13.2-2.1,2.58-4.17,6.4-7.98,6.28-3.47,.06-6.93-1.03-9.82-2.91-1.89-1.19-3.35-3.26-5.73-3.4,2.37-.11,4.07,1.95,5.99,2.98,2.87,1.72,6.21,2.56,9.53,2.46,3.54,.02,5.21-3.6,7.2-5.99,2.95-3.62,3.1-8.17,3.18-12.63,.12-4.51-.1-9.02-.56-13.53h0Z"/><path class="d" d="M252.52,183.44c3.61,3.11,6.89,6.61,9.82,10.4,2.19,2.83,4.17,6.18,4.4,9.87,.17,3.67-1.21,7.14-2.14,10.61-.71,2.28-1.53,4.57-2.68,6.68-2.23,4.26-5.34,8.05-9.09,10.99,3.46-3.24,6.36-7.07,8.4-11.34,2.05-4.23,3.2-8.89,4.25-13.47,.51-2.28,.43-4.6-.36-6.78-2.66-6.54-7.85-11.83-12.59-16.96h0Z"/><path class="d" d="M270.46,225.83c-2.4,1.36-4.67,2.38-7.28,3.26,1.84-2.04,4.54-3.24,7.28-3.26h0Z"/><path class="d" d="M270.47,230.84c-3.66,.88-8.99,6.39-12.51,3.07,.98,.6,2.09,.48,3.1,.22,3.15-.91,5.96-3.43,9.41-3.29h0Z"/><path class="d" d="M254.01,184.88c5.29,6.23,11.94,11.45,15.82,18.78,.96,1.83,1.65,3.85,1.82,5.91,.07,.68-.01,1.38-.03,2.06-.09-.99-.18-2.05-.47-3.01-.44-1.61-1.13-3.17-2-4.6-4.18-7.01-10.75-12.27-15.15-19.15h0Z"/><path class="d" d="M252.64,183.57c5.25-.6,11.06-.69,15.6,2.61,5.33,3.37,5.85,8.91,4.91,14.62-.46,3.53-1.15,7.04-2.17,10.44,.86-5.21,1.71-10.51,1.58-15.77-.05-5.48-4.59-9.18-9.47-10.88-3.31-1.13-6.97-.88-10.45-1.02h0Z"/><path class="d" d="M265.95,189.87c2.82,1.97,3.98,5.59,4.21,8.89-1.61-2.98-2.44-5.98-4.21-8.89h0Z"/><path class="d" d="M344.67,279.47c19.84-3.18,40.85,4.72,54.22,19.61l2.71,3.31,2.45,3.5-2.65-3.33-2.87-3.14c-13.81-14.23-34.09-21.88-53.86-19.95h0Z"/><path class="d" d="M404.39,305.31c-30.01-1.18-43.51,35.74-79.26,13.12-3.52-2.03-6.65-4.76-8.98-8.08,2.51,3.18,5.65,5.77,9.23,7.66,22.91,13.72,35.16,4.44,55.69-7.06,7.13-3.75,15.16-6.59,23.33-5.63h0Z"/><path class="d" d="M339.67,292.65c11.01,3.63,22.41-.34,33.71,.47,11.35,.83,22.44,5.62,30.59,13.59-2.17-1.82-4.44-3.5-6.86-4.94-7.18-4.37-15.41-7.12-23.8-7.65-5.59-.45-11.21,.3-16.87,.58-5.62,.28-11.51,.17-16.77-2.05h0Z"/><path class="d" d="M384,286.47c-3.38,2.9-7.39,5-11.7,6.12,3.76-2.39,7.59-4.39,11.7-6.12h0Z"/><path class="d" d="M356.51,279.82c-3.84,5.86-10.14,9.62-16.39,12.46,5.6-4.09,11.49-7.5,16.39-12.46h0Z"/><path class="d" d="M350.39,279.28c-.84,2.03-2.39,3.62-4.41,4.5,1.1-1.91,2.53-3.36,4.41-4.5h0Z"/><path class="d" d="M355.99,294.72c8.12,2.06,15.75,6.83,20.82,13.55,.66,1.01,1.24,2.1,1.54,3.27-.51-1.09-1.16-2.08-1.93-2.97-5.58-6.14-12.83-10.62-20.43-13.85h0Z"/><path class="d" d="M373.39,304.06c3.45,2.16,6.91,3.59,10.87,4.51-4.02,.53-8.4-1.29-10.87-4.51h0Z"/><path class="d" d="M330.48,300.75c.93,5.2,3.15,10.15,6.83,13.96,1.78,1.92,3.53,3.97,5.6,5.51,2.08,1.55,4.71,2.2,7.27,2.91-1.33-.15-2.64-.36-3.96-.68-4.06-.92-6.98-4.18-9.67-7.09-3.72-3.87-5.93-9.27-6.08-14.62h0Z"/><path class="d" d="M299.15,299.27c3,2.05,6.15,3.29,9.19,5.28-3.5-.66-7.16-2.21-9.19-5.28h0Z"/><path class="d" d="M304.61,299.52c2.9,2.15,5.78,3.63,9.2,4.76-3.58,.32-7.39-1.65-9.2-4.76h0Z"/><path class="d" d="M295.37,299.66c1.62,.9,2.74,2.44,4.26,3.43,1.47,1.06,3.08,1.8,4.8,2.46-4,.31-7.11-2.72-9.06-5.89h0Z"/><path class="d" d="M296.13,303.11c2.14,1.62,3.53,3.51,5.76,5.03-2.76-.17-4.8-2.62-5.76-5.03h0Z"/><path class="d" d="M311.92,299.89c.73,.52,1.57,.46,2.4,.42,2.58-.14,4.93-.76,7.42-1.62-1.92,1.87-4.79,2.68-7.44,2.4-.86-.08-1.96-.35-2.38-1.19h0Z"/><path class="d" d="M316.35,298.02c1.19-.51,1.91-.61,3.2-.41-.68,1.1-2.26,1.3-3.2,.41h0Z"/><path class="d" d="M320.85,299.45c4.91-3.52,10.01-6.54,13.75-11.39-2.54,5.63-8.24,9.14-13.75,11.39h0Z"/><path class="d" d="M339.62,280.39c-.49,2.45-.51,4.93-1.52,7.26-1,2.32-2.67,4.38-4.83,5.63,1.64-1.85,2.99-3.83,3.91-6.02,1-2.2,1.21-4.74,2.44-6.87h0Z"/><path class="d" d="M318.3,230.13c.53-.43,.62-.35,.21,.2-.53,.43-.61,.35-.21-.2h0Z"/><path class="d" d="M290.52,228.34c1.42-2.59,6.57-.6,8.49,.62-2.24-.12-4.34-.77-6.49-1.06-.68-.05-1.36-.02-2,.44h0Z"/><path class="d" d="M261.68,245.3c.68,.59,.68,1.28,0,1.86-.68-.59-.67-1.28,0-1.86h0Z"/><path class="d" d="M255.25,288.52c1.28,.51,1.9,.9,2.92,1.82-1.28,.52-2.82-.45-2.92-1.82h0Z"/><path class="d" d="M247.47,284.61c2.4,2.28,4.43,4.65,6.3,7.39-2.82-1.73-5.04-4.34-6.3-7.39h0Z"/><path class="d" d="M299.72,313.1c8.96-.59,17.85-2.81,25.9-6.81,3.98-2,8.05-4.17,10.82-7.63,2.81-3.43,3.23-8.34,5.97-12.01-1.18,1.94-1.83,4.1-2.49,6.26-1.81,7.39-7.42,11.09-13.85,14.28-8.17,3.95-17.26,6.13-26.34,5.92h0Z"/><path class="d" d="M340.27,292.68c2.93-3.92,2.29-9.12,3.89-13.59,1.38-4.6,3.63-8.93,6.54-12.77,1.46-1.93,3.24-3.55,4.31-5.57,2.19-4.12,.23-9.57-3.74-11.89-1.97-1.25-4.33-1.87-6.71-1.89,2.37-.2,4.82,.31,6.96,1.47,4.37,2.32,6.68,8.19,4.3,12.73-1.16,2.23-2.95,3.88-4.32,5.76-2.91,3.69-5.1,7.93-6.6,12.39-1.73,4.34-1.35,9.72-4.62,13.35h0Z"/><path class="d" d="M272.08,230.09c15.42-7.66,34.5-8.57,50.27-1.37,6.3,3.14,10.57,8.87,15.74,13.39,2.51,2.1,5.41,4.83,8.95,4.19-3.53,.88-6.66-1.81-9.27-3.81-5.26-4.34-9.66-9.89-15.83-12.95-15.66-6.93-34.23-6.15-49.86,.56h0Z"/><path class="d" d="M260.64,242.39c-4.27,2.99-6.99,7.93-7.05,13.09-.05,1.67,.33,3.45,0,5.31-.35,1.85-1.31,3.44-2.28,4.89-1.99,2.84-3.89,5.76-4.73,9.14-.44,1.68-.54,3.43-.27,5.15-.5-1.69-.5-3.5-.21-5.25,.65-3.49,2.47-6.67,4.42-9.56,.94-1.45,1.8-2.94,2.09-4.55,.32-1.6-.03-3.34,.05-5.15,.17-5.34,3.29-10.54,7.99-13.07h0Z"/></g><path class="d" d="M403.96,201.96c-7.18-.52-14.38,.38-21.54,.81-7.16,.56-14.3,1.58-21.14,3.83,6.6-2.99,13.88-4.24,21.06-4.83,7.19-.4,14.49-1.1,21.62,.19h0Z"/><path class="d" d="M371.44,203.57c-18.47,3.8-28.14,9.96-41.2,23.33l-4.9,4.9c13.39-16.01,24.71-25.66,46.11-28.22h0Z"/><path class="d" d="M403.62,201.92c-3.64,5.14-9.55,8.71-11.97,14.67-1.11,2.95-1.96,6.11-3.35,8.99-2.65,5.87-6.29,11.2-10.19,16.3-5.78,7.56-12.89,14.81-22.12,17.88,5.95-2.4,11.01-6.46,15.32-11.1,6.32-7.07,12.02-14.91,16.17-23.46,1.43-2.88,2.22-5.93,3.47-8.91,2.67-6.08,8.63-9.41,12.67-14.37h0Z"/><path class="d" d="M338.79,242.84c8.34-12.82,21.37-22.39,35.33-28.36,2.91-1.08,5.92-1.66,8.8-2.57,2.87-.92,5.62-2.25,8.39-3.53,2.78-1.25,5.55-2.53,8.35-3.75-2.7,1.43-5.42,2.79-8.13,4.19-2.72,1.36-5.45,2.78-8.36,3.81-2.91,1.05-5.92,1.6-8.72,2.69-13.8,6.11-26.59,15.32-35.65,27.51h0Z"/><path class="d" d="M379.95,213.52c3.02-4.39,7.28-7.96,12.13-10.14-4.13,3.38-8.08,6.67-12.13,10.14h0Z"/><path class="d" d="M367.01,205.92c.58,1.95-.26,4.03-1.04,5.79-.81,1.77-1.69,3.52-2.85,5.14,.71-3.9,3.22-7.07,3.89-10.93h0Z"/><path class="d" d="M372.95,204.49c-.21,1.7-.83,3.02-2.02,4.25-.11-1.7,.64-3.26,2.02-4.25h0Z"/><path class="d" d="M348.11,232.84c7.98-7.62,20.26,4.85,29.33-.5-.99,.81-2.21,1.35-3.46,1.69-8.47,2.38-18.34-6.7-25.86-1.18h0Z"/><path class="d" d="M384.93,226.85c-1.14,1.09-2.98,.8-4.37,.55-1.43-.29-2.84-.65-4.2-1.32,1.51-.11,2.95,.08,4.39,.34,1.44,.27,2.7,.75,4.18,.43h0Z"/><path class="d" d="M335.92,221.7c-.94,.95-.95,2.27-1.05,3.52-.38,3.85-.45,7.56,.45,11.4-1.99-3.43-2.02-7.69-1.22-11.5,.22-1.24,.6-2.8,1.82-3.43h0Z"/><path class="d" d="M404.92,149.84c-2.3,7.74-6.54,15.52-14.08,19.19-5.47,2.7-11.23,4.67-17.09,6.29-1.96,.5-3.92,.99-5.91,1.36,3.86-1.18,7.7-2.42,11.47-3.83,14.34-5.23,19.64-8.46,25.61-23.02h0Z"/><path class="d" d="M372.61,175.58c-9.04,2.08-18.14,4.08-26.8,7.35-25.88,10.29-46.7,30.77-73.43,39.34,4.34-1.64,8.58-3.53,12.7-5.65,20.79-10.34,38.59-26.17,60.46-34.41,8.78-3.13,17.92-4.95,27.06-6.63h0Z"/><path class="d" d="M272.53,202.95c2.22-5.11,5.82-9.65,10.31-12.95-3.53,4.32-6.89,8.53-10.31,12.95h0Z"/><path class="d" d="M403.77,151.18c-.6,4.63-4.45,8.24-8.61,9.97-4.24,1.81-8.89,2.1-13.41,2.55-6.78,.54-13.61,.76-20.4,.18-2.26-.22-4.51-.48-6.74-.89,2.26,.19,4.51,.35,6.77,.4,6.77,.23,13.54-.08,20.28-.68,8.43-.49,19.65-1.92,22.1-11.53h0Z"/><path class="d" d="M358.04,162.82c-19.62,.75-39.89,2.08-57.79,10.87-2.55,1.21-5.01,2.61-7.41,4.11,2.27-1.69,4.7-3.18,7.19-4.55,17.68-9.47,38.31-10.96,58.01-10.43h0Z"/><path class="d" d="M309.57,170.27c-3.48,3.14-3.83,7.96-4.6,12.34-.53,3.4-1.93,6.75-4.23,9.36-.77,.86-1.58,1.66-2.49,2.36,.75-.86,1.48-1.72,2.1-2.66,1.98-2.74,3.1-5.91,3.63-9.24,.76-4.3,1.53-9.6,5.58-12.16h0Z"/><path class="d" d="M317.63,167.91c-1.61,1.93-3.36,3.8-3.69,6.36-.22,1.21-.26,2.49-.45,3.79-.16,1.29-.52,2.63-1.28,3.7,1.38-5.93-1.1-9.83,5.42-13.84h0Z"/><path class="d" d="M347.88,164.32c-3.49,3.03-6.43,6.6-8.54,10.7-1.57,3.02-3.15,6.52-6.19,8.45-1.01,.62-2.15,1.08-3.32,1.14,1.13-.29,2.16-.82,3.03-1.54,2.76-2.16,3.97-5.45,5.59-8.51,2.16-4.15,5.42-7.8,9.42-10.23h0Z"/><path class="d" d="M355.78,163.17c-.85,2.46-2.28,4.56-4.27,6.24,.85-2.46,2.28-4.56,4.27-6.24h0Z"/><path class="d" d="M315.95,149.19c15.2-5.2,31.47-.35,45.91,5.02,11.63,4.34,21.66,8.42,33.6,2.35,3.5-1.66,6.89-3.76,9.47-6.72-1.19,1.56-2.66,2.89-4.24,4.06-14.18,10.1-24.18,6.84-39.17,1.25-14.4-5.45-30.24-10.34-45.56-5.96h0Z"/><path class="d" d="M263.75,197.27c.31,3.6,.13,7.23-.32,10.82-.47,3.6-1.25,7.45-3.63,10.31-.6-.83-.77-1.11,.08-.23h-.16c1.73-3.15,2.24-6.68,2.73-10.22,.49-3.54,.86-7.1,1.3-10.68h0Z"/><path class="d" d="M273.75,177.42c-1.55,3.29-3.12,6.3-4.95,9.44,.51-3.59,2.29-6.98,4.95-9.44h0Z"/><path class="d" d="M285.88,163.92c1.3-2.76,3.58-5.5,6.73-6.05-2.54,1.85-4.28,4.1-6.73,6.05h0Z"/><path class="d" d="M238.36,182.31c2.62-6.03,6.12-12.45,12.47-15.23,4.7-2.04,9.77-1.91,14.5-3.56,1.55-.52,3.02-1.3,4.3-2.35-1.13,1.22-2.6,2.12-4.12,2.81-4.56,1.94-9.81,2.07-14.28,4.02-6.11,2.63-9.64,8.79-12.87,14.32h0Z"/><path class="d" d="M281.36,158.76c2.19-1.46,5,.05,7.23-1.34-1.43,2.62-4.88,1.31-7.23,1.34h0Z"/><path class="d" d="M243.51,161.03c.25,2.41-.76,4.79-1.3,7.12-.69,2.28-1.51,4.8-3.38,6.41,1.22-2.11,1.75-4.38,2.42-6.69,.59-2.33,1.71-4.52,2.26-6.83h0Z"/><path class="d" d="M236.87,161.59c-.81,18.03,8.21,36.36,1.8,54.06,5.05-17.93-3.97-35.98-1.8-54.06h0Z"/><path class="d" d="M239.53,213.53c-.42,5.25-1,10.48-2.12,15.64-.81,3.11-3.04,5.56-3.83,8.67,.1-2.12,1.13-4.09,1.93-6,.86-1.9,1.24-3.86,1.53-5.95,.68-4.15,1.44-8.27,2.48-12.35h0Z"/><path class="d" d="M252.74,156.78c-1.42,2.19-2.4,4.11-3.36,6.55-.51-2.56,.98-5.46,3.36-6.55h0Z"/><path class="d" d="M224.27,154.92c1.33,4.21,5.39,7.29,9.78,7.33,1.43,.03,2.87-.23,4.26-.6,5.56-1.68,10.93-4.28,16.68-5.81,3.39-.7,10.82-2.76,13.09,.7,.46,.65,.67,1.47,.72,2.26,.75,6.57,3.27,12.78,5.84,18.83-2.69-5.23-5.08-10.69-6.3-16.53-.59-3.22-.35-5.47-4.52-5.56-5.84,.03-11.48,2-16.93,3.99-4.04,1.42-8.49,3.54-12.87,3.35-4.52-.13-8.73-3.6-9.76-7.95h0Z"/><path class="d" d="M272.24,173.62c4,5.16,13.15,20.52,20.86,15.7,2.11-1.63,2.14-4.53,1.6-6.93-.29-1.72-.7-3.44-1.4-5.06,.91,1.53,1.42,3.25,1.88,4.96,.74,2.63,.78,5.83-1.54,7.72-8.69,5.66-17.81-10.18-21.4-16.39h0Z"/><path class="d" d="M294.37,181.41c-2.68-9.9-8.61-18.84-16.74-25.09-1.02-.79-2.54-1.84-3.6-2.55,.66,.33,1.32,.66,1.98,1.01,9.7,5.47,16.81,15.58,18.37,26.63h0Z"/><path class="d" d="M224.44,155.23c5.74-4.15,8.79-11.01,14.7-15.02,5.94-4.2,14.34-3.99,20.27,.1,3.98,2.61,7.11,6.18,10.07,9.77-3.25-3.29-6.5-6.72-10.48-9.11-5.78-3.72-13.62-3.88-19.36,0-5.81,3.87-9.18,10.63-15.21,14.26h0Z"/><path class="d" d="M271.76,156.82c8.47,6.93,4.27,19.96,10.93,28.01,.84,1.18,1.84,2.24,2.9,3.25-1.21-.83-2.3-1.84-3.28-2.95-7.47-7.82-3.14-20.59-10.54-28.32h0Z"/><path class="d" d="M261.27,86.8c-10.75,4.1-11.05,23.24-7.32,32.33,2.49,6.79,6.7,13.29,6.85,20.72-.49-4.89-2.6-9.33-4.71-13.7-4.71-8.82-6.93-18.71-3.93-28.51,1.35-4.58,4.18-9.59,9.12-10.84h0Z"/><path class="d" d="M261.17,92.13c-7.97,9.46-4.21,22.8,1.12,32.63,3.19,6.01,7.1,13.15,4.44,20.06,1.34-4.55,.02-9.3-1.99-13.44-2.04-4.16-4.54-8.18-6.3-12.57-3.57-8.48-4.29-19.71,2.73-26.67h0Z"/><path class="d" d="M267.63,147.87c3.23-6.45,10.55-10.87,17.76-10.71-7.07,1.34-13.28,5.08-17.76,10.71h0Z"/><path class="d" d="M270.38,150.46c.81-3.26,4.21-5.83,7.57-5.7-3.06,1.35-5.43,3.12-7.57,5.7h0Z"/><path class="d" d="M272.2,149.49c5.47,.67,10.74-.25,15.67-2.7-4.11,3.68-10.57,4.79-15.67,2.7h0Z"/><path class="d" d="M272.69,153.37c3.68-.37,7.36-.63,11.05-.88,3.67-.23,7.41-.59,11.16,.11,2.62,.39,5.26,2.07,7.76,1.04,2.52-2-3.1-3.46-4.52-3.74-1.78-.43-3.62-.6-5.47-.62,1.84-.21,3.71-.13,5.56,.14,1.87,.42,3.83,.58,5.32,2,.89,.85,.64,2.41-.45,2.98-.95,.56-2.04,.56-2.97,.45-1.93-.23-3.66-.95-5.42-1.26-7.08-1.04-14.78,.09-22.02-.21h0Z"/><path class="d" d="M276.25,155.07c7.09,.18,14.18,.7,21.24,1.21,3.5,.23,7.06,.19,10.28-1.13,3.27-1.31,6-3.67,8.73-5.86-5.61,6.02-10.67,8.77-19.07,7.99-7.09-.55-14.13-1.26-21.18-2.21h0Z"/><path class="d" d="M316.56,149.38c4.64-5.21,4.51-10.56-3.53-10.47-1.87-.05-3.75,0-5.64,.13,1.83-.52,3.72-.83,5.63-.91,8.64-.76,9.86,6.54,3.54,11.25h0Z"/><path class="d" d="M260.87,86.48c3.93-.29,7.09,3.07,8.43,6.48,1.39,3.49,1.53,7.36,2.41,10.92,.59,2.37,1.53,4.66,2.34,7.02,2.55,7.12,2.24,15.19-.95,22.05-1.06,2.26-2.38,4.41-4.01,6.29,2.88-4.01,4.77-8.7,5.47-13.58,.73-4.86,.21-9.83-1.47-14.44-.78-2.34-1.7-4.67-2.28-7.13-1.18-4.76-.78-10.06-3.83-14.11-1.41-1.95-3.61-3.51-6.14-3.51h0Z"/><path class="d" d="M271.73,103.36c2.67-.57,5.45-.56,8.16-.31,6.67,.53,15.22,2.95,15.32,11.06,0,1.39-.27,2.78-.88,4,.39-1.3,.55-2.65,.39-3.97-.6-7.49-8.71-9.42-14.93-10.33-2.66-.41-5.35-.61-8.06-.45h0Z"/><path class="d" d="M271.12,104c3.31,3.28,8.38,4.04,11.27,7.86,3.21,4.08,.69,9.67-2.63,12.82-2.16,2.18-4.38,4.24-6.65,6.28,1.96-2.32,4.08-4.53,6.08-6.79,4.54-4.97,5.51-10.74-.77-14.72-2.46-1.69-5.43-2.99-7.29-5.44h0Z"/><path class="d" d="M286.37,123.35c-2.44,3.87-5.31,7.45-8.4,10.81-1.55,1.66-3.18,3.35-5.18,4.58-1.91,1.22-4.01,2.2-5.26,4.17,.41-1.08,1.22-1.97,2.08-2.74,2.75-2.05,5.38-4.03,7.62-6.69,2.7-2.89,6.47-7.14,9.14-10.13h0Z"/><path class="d" d="M289.71,139.24c-.33,1.76-2.3,3.04-4.04,2.6,1.48-1.01,2.51-1.67,4.04-2.6h0Z"/><path class="d" d="M291.63,145.25c2.35-.7,5.45-1.32,7.25,.87,.85,.98,1.44,2.17,2.52,2.71,.91,.62,2.53-.06,2.26-1.18l-.25-.7c1.15,.69,3.25,1.96,4.06,.31,.25-1.43-1.86-1.92-2.32-3.33l-.43-1.03,.98,.57c.53,.31,1.37-.26,1.41-.85,.08-.65-.49-1.36-1.16-1.54l.18-.84c.73,.11,1.57-.29,1.78-.91,.22-.5-.31-1.4-.88-1.29l-.09-.89c2.29-.13,3.88-3.25,.92-3.9-.98-.22-2.16-.07-3.19,.05,.48-1.13,1.5-3.16,.28-4.03l-1-.53,1.14-.39c.22-.06,.21-.5,.1-.69-.1-.26-.53-.42-.99-.4-1.11,.05-2.2,.79-3.44,.42l-.71-.21,.5-.55c.85-.95,1.72-2.07,2.3-3.18,.05-.12,.07-.24,.07-.32-.01-.09,0-.03,0-.04-1.41,.25-4.4,1.03-5.89,1.36l2.88-1.56c1.83-1.09,1.21-3.92-1.03-3.99-2.34-.02-2.72,3.15-4.8,4.03l-.7,.32c.36-.91,.83-2.05,.49-2.97-.22-.65-1.01-1.19-1.62-.94l-.41,.17c.14-1.18,.39-2.52-.21-3.52-2.7-3.39-4.92,3.46-4.41,5.6-.7-2.48,1.6-9.51,4.75-5.82,.66,1.05,.54,2.29,.44,3.36l-.36-.27c.48-.21,1.04-.11,1.45,.14,1.34,.73,1.23,2.57,.76,3.75l-.43-.4c1.88-.96,2.46-4.37,5.08-4.23,3.05,.02,4.04,3.99,1.43,5.55l-.31-.81,1.99-.49c.45-.07,.77-.3,1.31-.07,.32,.14,.5,.55,.49,.8,.03,.66-.39,1.19-.67,1.66-.56,.89-1.2,1.73-1.9,2.51l-.21-.76c1,.26,2.02-.47,3.14-.48,1.05-.14,2.36,.76,2.04,2.07-.06,.39-.42,.86-.91,.96l.14-.92c.41,.21,.75,.62,.91,1.04,.41,1.18,.01,2.42-.43,3.48l-.5-.68c1.31-.11,2.82-.17,3.99,.65,1.4,.92,1.26,3,.13,3.98-.67,.67-1.55,1.12-2.53,1.18l-.09-.89c.68-.11,1.29,.3,1.6,.77,1.16,1.65-.74,3.5-2.48,3.17l.18-.84c1.05,.32,1.88,1.33,1.75,2.47-.17,1.18-1.51,2.02-2.62,1.42l.55-.47c.48,1.26,2.81,2.09,2.23,3.81-.8,1.85-3.09,1.21-4.31,.34l.41-.33c.4,1.64-1.78,2.64-3.03,1.76-1.22-.7-1.77-1.97-2.55-2.92-1.64-2.15-4.69-1.63-7-1.08h0Z"/><path class="d" d="M286.93,121.57l2.05,.91c.39,.12,.79,.53,.67,.97-.32,1.24,.87,1.65,1.79,2.22,.78,.43,1.61,1.09,1.63,2.1l-.26,.09-2.83,.99c-.93,.35-2,.57-2.22,1.23-.43,1.97,2.03,2.43,3.63,2.32h2.83l-2.63,.95c-.34,.13-.5,.73-.32,1.23,.14,.46,.66,.86,1.24,1.1,1.06,.42,2.86,.89,3.99,1.26,.3,.04,.48,.6,.46,.88-.12,1.41-1.75,1.58-2.65,2.16-.94,.91,.81,1.51,1.6,1.37,.6,0,1.32-.06,1.95,.34,.62,.42,.82,1.09,1.06,1.64,.47,1.14,.95,2.28,1.4,3.44-.59-1.09-1.15-2.19-1.71-3.29-.28-.55-.54-1.12-1.01-1.37-1.08-.55-2.53,.28-3.65-.58-1.26-.9-.45-2.28,.76-2.68,.49-.17,1.57-.65,1.31-1.21l.23,.16c-1.25-.38-2.88-.75-4.12-1.23-.69-.3-1.47-.76-1.8-1.67-.32-.88-.09-2.04,.86-2.46l.2,.95c-.99-.01-2.11,0-3.15-.55-1.07-.58-1.79-1.88-1.32-3.1,.53-1.17,1.79-1.31,2.8-1.65l2.87-.85-.23,.35c-.24-1.41-2.32-1.64-2.99-2.97-.2-.38-.15-.89-.04-1.21,.11-.34-.11-.55-.46-.72l-1.95-1.11h0Z"/><path class="d" d="M292.59,128.33c3.68-.38,7.82,.87,9.99,4.09,1.6,2.37,1.95,5.79,.18,8.16-.59,.75-1.26,1.37-1.98,1.94,.55-.73,1.16-1.42,1.57-2.21,1.28-2.3,.84-5.22-.6-7.34-1.99-2.98-5.68-4.24-9.15-4.65h0Z"/><path class="d" d="M301.8,132.41c-2.13-1.14-3.99,.02-6.18,.55,1.31-1.87,4.92-3.02,6.18-.55h0Z"/><path class="d" d="M302.71,133.43c-1.75,.81-2.96,1.42-4.65,2.34,.55-1.86,2.84-3.01,4.65-2.34h0Z"/><path class="d" d="M302.33,133.46c2.22,2.16,.57,6.64-2.52,6.84,2.27-1.71,3.14-4.06,2.52-6.84h0Z"/><path class="d" d="M253.56,118.99c-.42,5.06-1.83,10.01-3.85,14.66-.66,1.54-1.45,3.02-1.42,4.73-.62-3.35,1.51-6.6,2.28-9.78,1.05-3.18,1.96-6.39,3-9.61h0Z"/><path class="d" d="M251.5,131.01c.78,2.22,1.18,4.24,1.28,6.58-1.41-1.86-1.89-4.33-1.28-6.58h0Z"/><path class="d" d="M251.71,106.34c-5.69,11.28-14.8,21.9-14.38,35.21-.26-1.6-.29-3.23-.22-4.86,.72-11.38,8.59-21.15,14.6-30.35h0Z"/><path class="d" d="M252.45,97.5c-6.94,10.55-13.2,21.57-18.74,32.92,4.29-11.93,10.67-23.15,18.74-32.92h0Z"/><path class="d" d="M214.42,116.25c1.24,2.62,2.44,5.37,4.49,7.45,2.01,2.06,4.57,3.55,6.83,5.53,3.38,2.95,6.06,6.65,7.85,10.76,.57,1.37,1.07,2.77,1.41,4.21-.56-1.37-1.15-2.71-1.86-4-2.03-3.86-4.79-7.35-8.07-10.21-2.15-1.92-4.74-3.46-6.74-5.77-2.01-2.31-3.05-5.17-3.92-7.97h0Z"/><path class="d" d="M206.21,123.13c2.69,1.65,5.48,2.98,8.51,3.85,9.02,3.13,15.88,12.02,16.38,21.57-.33-1.54-.64-3.07-1.22-4.52-2.57-7.27-8.28-13.41-15.44-16.33-2.95-1.05-5.82-2.56-8.24-4.56h0Z"/><path class="d" d="M205.75,122.91c3.16,.58,5.96-1.56,7.42-4.24,.53-.89,.96-1.85,1.37-2.86,0,1.09-.23,2.19-.67,3.21-1.12,3.1-4.96,5.72-8.12,3.89h0Z"/><path class="d" d="M205.2,80.79c4.85,11.07,5.94,23.89,9.22,35.45-4.58-11.17-5.68-23.96-9.22-35.45h0Z"/><path class="d" d="M207.01,88.9c1.71,1.49,1.52,4.08,1.59,6.14-.02,5.41-1.58,10.82-4.4,15.44-.58,.91-1.19,1.8-1.87,2.63,.49-.96,1.01-1.89,1.44-2.87,2.28-4.78,3.64-9.96,4.06-15.24,.09-2.05,.53-4.37-.82-6.11h0Z"/><path class="d" d="M206.21,83.69c-2.11-7.05-8.35-11.76-14.41-15.37-6.28-3.82-13.98-2.74-20.87-1.51-4.73,.95-9.29,2.59-13.62,4.72,4.14-2.51,8.71-4.35,13.45-5.47,7.02-1.49,15.12-2.58,21.49,1.48,6.11,3.71,12.39,8.84,13.96,16.16h0Z"/><path class="d" d="M158.61,70.83c-1.03,.54-2.32,1.35-2.35,2.61,.31,2.09,.64,4.26,.57,6.39-.58,8.78-5.23,16.13-1.14,24.88,.61,1.58,1.38,3.11,2.13,4.64-8.21-12.11-3.53-17.13-1.75-29.57,.19-2.12-.08-4.22-.18-6.35,.12-1.41,1.56-2.19,2.72-2.61h0Z"/><path class="d" d="M156.91,107.24c3.63,8.6,11.97,15.13,21.25,16.27,4.62,.62,9.33,.01,14.02-.47l7.05-.7c2.31-.19,4.89-.45,6.98,.79-2.18-1.03-4.62-.65-6.92-.3l-7.02,.98c-4.67,.63-9.44,1.26-14.23,.69-9.52-1.25-18.13-8.1-21.13-17.26h0Z"/><path class="d" d="M337.14,53.75c-15.16,18.34-37.91,27.49-57.85,39.43-2.14,1.27-6.43,3.96-8.51,5.34l4.07-2.95c20.55-14.22,45.13-23.07,62.29-41.82h0Z"/><path class="d" d="M337.14,53.75c.94,7.39,1.44,14.88,.91,22.37-1.59,18.71-8.71,36.41-16.42,53.34-1.7,3.33-3.67,6.56-6.2,9.31,2.35-2.9,4.21-6.15,5.75-9.53,5.82-13.66,11.25-27.65,14.41-42.19,2.38-10.94,2.46-22.2,1.54-33.31h0Z"/><path class="d" d="M336.12,55.95c-4.84,20.16-20.37,35.74-37.17,46.88-2.43,1.59-4.89,3.16-7.4,4.62,2.39-1.66,4.78-3.3,7.12-5.02,16.33-11.7,31.42-26.83,37.45-46.48h0Z"/><path class="d" d="M299.96,102.73c5.96-1.37,12.02-2.35,18.02-3.45,5.92-1.1,11.98-3.02,16.17-7.56-3.65,5.13-10.02,7.42-15.98,8.54-6.05,1.07-12.1,1.85-18.21,2.47h0Z"/><path class="d" d="M337.25,81.88c-2.01,4.43-6.65,7.72-11.5,8.14,4.5-1.84,8.26-4.5,11.5-8.14h0Z"/><path class="d" d="M315.89,71.91c-.13,2.83-.27,5.31-.47,8.14-1.19-2.56-1-5.74,.47-8.14h0Z"/><path class="d" d="M310.73,74.94c-.64,.49-.92,1.24-1,1.98-.21,2.32,.47,4.58,.91,6.87,.63,3.02,.94,6.76-1.22,9.28,.72-1.43,.9-2.98,.87-4.5,.18-3.6-3.36-11.37,.43-13.63h0Z"/><path class="d" d="M291.28,85.82c-1.29,4.05-2.37,7.89-3.4,12.02-.38-4.22,.87-8.62,3.4-12.02h0Z"/><path class="d" d="M284.4,90.22c-.45,.28-.5,.78-.5,1.24,.45,3.49-.02,7.28-1.95,10.3,.57-3,1.09-5.82,1.3-8.82,.09-.88,0-2.47,1.14-2.72h0Z"/><path class="d" d="M279.62,109.64c1.27,2.25,1.02,5.33-.6,7.35,.3-2.58,.48-4.75,.6-7.35h0Z"/><path class="d" d="M282.8,114.35c-2.26,2.48-4.55,4.62-7.18,6.71,1.55-2.97,4.12-5.36,7.18-6.71h0Z"/><path class="d" d="M322.37,112.39c.36,1.24-.38,2.54-1.64,2.85,.24-1.28,.65-2,1.64-2.85h0Z"/><path class="d" d="M319.7,119.76c-.22,1.39-1.33,2.42-2.74,2.53,.64-1.27,1.43-1.99,2.74-2.53h0Z"/><path class="d" d="M322.67,123.29c-3.83,5.55-10.78,7.86-17.12,9.1,6-2.62,12.25-4.53,17.12-9.1h0Z"/><path class="d" d="M317.87,132.01c-2.17,2.33-5.53,3.58-8.69,3.2,3.03-1.04,5.72-2.02,8.69-3.2h0Z"/><path class="d" d="M272.02,68.36c1.61,2.34,4.27,3.72,7.07,3.76,2.96-.15,7.05,.86,6.1,4.7-.34,1.91,2.27,3.03,2.12,5.04-.19,2.42-3.11,3.04-5.02,2.75-1.87-.16-3.73-.17-5.59-.1-3.71,.2-7.48,1.17-10.34,3.67,2.6-2.85,6.53-4.07,10.28-4.44,1.9-.2,3.82-.16,5.71-.04,1.55,.16,3.77-.13,3.97-1.89-.02-1.67-2.58-3.14-2.02-5.13,.95-3.15-2.87-3.92-5.24-3.93-2.87-.14-5.69-1.86-7.03-4.39h0Z"/><path class="d" d="M271.57,68.88c-1.55,1.51-1.07,3.51-.34,5.3,1.97,4.34-2.05,7.9-5.54,9.65-1.68,.98-3.38,1.93-4.58,3.52,.86-1.81,2.55-3.1,4.16-4.18,11.02-6.77,1.23-9.85,6.29-14.29h0Z"/><path class="d" d="M276.08,71.8c5.11-7.09,11.73-13.18,19.32-17.57,2.55-1.41,5.44-2.69,8.61-2.23,1.83,.3,3.06,1.83,2.47,3.73-2.49,10.16-11.65,17.67-21.51,20.11,9.48-3.08,18.18-10.38,20.58-20.32,.78-3.3-3.77-2.82-5.81-2.19-4.1,1.31-7.65,3.96-11.13,6.45-4.64,3.48-8.83,7.55-12.53,12.02h0Z"/><path class="d" d="M305.84,53.16c4.06-.79,7.95,3.08,7.29,7.19-.2,2.03-1.57,3.7-2.9,5.12-3.9,4.3-8.87,7.6-14.23,9.8-3.57,1.45-7.34,2.43-11.17,2.75,7.47-1.46,14.61-4.59,20.54-9.35,2.68-2.32,6.19-4.84,7-8.42,.74-3.8-2.67-7.4-6.54-7.08h0Z"/><path class="d" d="M274.93,71.22c5.95-6.73,9.05-15.45,15.8-21.56,4.83-4.45,13.75-6.55,18.64-1.14,.38,.51,.4,1.26-.01,1.78-.9,1.4-1.89,2.85-3.31,3.75,1.3-1.03,2.19-2.5,2.98-3.93,.3-.49,.28-.88-.06-1.32-3.03-3.18-8.18-3.17-12.08-1.77-10.61,4.32-13.93,16.82-21.95,24.19h0Z"/><path class="d" d="M220.7,77.68c-.23,2.44,1.76,4.17,2.98,6.06,3.98,5.82,6.19,12.77,6.45,19.82,.51,9.36-4.51,18.34-1.93,27.59-.86-2.17-1.18-4.53-1.22-6.87,.03-4.67,1.13-9.25,1.78-13.83,.98-6.83,.14-13.86-2.41-20.28-.84-2.14-1.87-4.21-3.08-6.17-1.09-1.94-3.05-3.92-2.58-6.33h0Z"/><path class="d" d="M262.51,48.68c-1.16,1.92-1.11,4.19-1.68,6.36-1.93,6.81-10.17,8.55-14.24,13.41-4.17,4.71-5.83,11.96-8.08,17.79-.77,2.07-1.51,4.14-2.32,6.2,1.19-4.25,2.49-8.47,3.8-12.68,1.34-4.23,2.88-8.55,5.84-11.97,3.09-3.44,7.36-5.13,10.74-7.81,1.7-1.32,3.14-3.02,3.79-5.08,.7-2.02,.78-4.41,2.14-6.22h0Z"/><path class="d" d="M236.81,90.36c-4.33,16.06-4.71,33.11-1.05,49.34,.27,1.08,.52,2.16,.77,3.24-.35-1.06-.69-2.11-1.03-3.18-4.67-16.04-4.31-33.66,1.31-49.41h0Z"/><path class="d" d="M223.67,61.84c2.42,2.69,4.83,5.88,5.06,9.66-.05,2.56-.1,5.16,.44,7.65,.41,1.99,1.04,3.95,1.92,5.84-2.45-3.39-3.56-7.76-3.37-11.91,.44-4.22-1.96-7.76-4.05-11.24h0Z"/><path class="d" d="M231.46,84.73c4.19-8.08,7.58-19.04,.84-26.69-3.02-3.65-7.23-6.14-10.88-9.35-3.54-3.16-6.94-7.45-6.7-12.44,.2,4.92,3.6,8.85,7.2,11.86,3.67,3.02,7.9,5.53,11.14,9.29,6.93,7.98,3.45,19.38-1.61,27.33h0Z"/><path class="d" d="M214.37,36.09c1.52,1.3,3,2.64,4.43,4.02,.91,.83,3.3,3.06,4.35,1.69,1.8-2.25,3.35-4.86,4.33-7.59,.3-.9,.43-1.94-.15-2.79,1.48,1.6,.33,4.06-.31,5.8-.97,2.07-1.99,4.34-3.83,5.82-3.23,1.12-6.87-4.88-8.82-6.96h0Z"/><path class="d" d="M227.51,31.3c1.26,1.19,2.32,2.49,3.38,3.8,.68,.77,1.11,1.71,1.98,2.02,.53,.09,1.22,.05,1.59-.44-.12,.72-.98,1.06-1.65,1.09-1.26-.06-2.04-1.3-2.7-2.05-1.05-1.34-1.99-2.79-2.6-4.42h0Z"/><path class="d" d="M234.42,36.57c1.05,1.83,1.93,3.76,2.65,5.74,.24,.64,.5,1.49,.16,2.29-.68,1.36-1.62,2.14-1.84,3.62-.52,2.67,.33,5.41,.97,8.03,.61,2.37,1.46,5.77,2.15,8.1l1.12,4.05c-1.13-2.57-2.1-5.2-2.96-7.87-1.12-4.03-2.99-8.21-2.19-12.51,.21-1.4,1.38-2.67,2.06-3.72,.27-.51,.15-1.13-.05-1.8-.59-2.01-1.28-3.98-2.05-5.93h0Z"/><path class="d" d="M239.6,68.35c5.26-4.89,5.89-7.69,4.87-14.67-.13-1.39-.16-2.84,.19-4.26,.54-2.95,3.37-4.62,5.34-6.45,.92-.93,1.7-2.04,1.78-3.26l.32-4.72,.64,4.67c.32,2.35,1.83,4.49,2.37,7.07,.7,2.53-.64,6.08-3.67,6.15h-.86l.62-.58c3.22-3.02,8.67-1.37,11.51-4.88-2.48,3.7-8.03,2.43-11.05,5.37l-.24-.58c1.11-.03,2.08-.88,2.57-1.9,1.54-3.66-1.65-6.77-2.21-10.51l.96-.04c-.1,1.59-1.03,2.91-2.06,3.9-1.99,1.87-4.56,3.15-5.17,5.97-.34,1.27-.31,2.63-.23,3.99,.77,7.03,.08,10.16-5.68,14.73h0Z"/><path class="d" d="M208.71,66.83c.34,5.37,3.22,10.51,8.34,12.36,1.63,.6,3.57,1.01,4.91,2.31-1.56-.97-3.37-1.06-5.15-1.57-5.55-1.46-8.99-7.58-8.1-13.1h0Z"/><path class="d" d="M194.83,23.17c-.05,2.4,1.27,4.45,2.31,6.53,2.58,5.32,6.1,10.07,8.78,15.32,.43,1.12,.71,2.33,.57,3.52-.17-2.39-1.55-4.36-2.91-6.24-1.41-1.89-2.71-3.89-3.91-5.93-1.18-2.05-2.28-4.16-3.23-6.33-.89-2.14-2.1-4.47-1.62-6.86h0Z"/><path class="d" d="M194.48,22.35c3.83,2.56,8.3,4.03,12,6.84,7.55,5.4,13.39,13.21,16.28,22.04,.73,2.2,1.15,4.57,.93,6.91-.22,2.32-.94,4.59-2.15,6.55,2.09-4.13,2.19-9.01,.49-13.21-1.58-4.27-3.7-8.34-6.46-11.97-2.66-3.7-5.94-6.92-9.55-9.7-3.56-2.93-7.98-4.56-11.55-7.46h0Z"/><path class="d" d="M217.91,71.31c-1.39-1.45-3.27-2.03-5.11-2.65-5.7-1.67-10.96-5.38-14.05-10.5,2.67,2.91,5.67,5.41,9.04,7.31,3.21,2.14,7.78,2.5,10.12,5.84h0Z"/><path class="d" d="M199.44,58.94c-6.22-9.14-7.96-22.7-4.65-33.21-.11,.71-.26,1.41-.36,2.11-1.22,10.51,.25,21.59,5.01,31.1h0Z"/><path class="d" d="M221.05,31.21c-3.49-6.06-4.58-15.43,1.25-20.46,4.65-2.69,8.77,2.22,9.58,6.48-1.27-3.61-4.94-8.15-9.05-5.69-5.24,4.89-4.25,13.55-1.78,19.67h0Z"/><path class="d" d="M222.1,12.46c4.64,2.54,8.1,7.42,8.94,12.65-2.23-4.81-5.14-8.95-8.94-12.65h0Z"/><path class="d" d="M231.58,27.81c1.93,2.38,2.71,5.7,2.01,8.69-.72-3-1.33-5.68-2.01-8.69h0Z"/><path class="d" d="M221.45,6.28c.97-6.23,4.76-5.77,8.92-2.39,4.19,3.23,7.34,7.71,9.23,12.65,3.68,9.22,.86,18.35-1.82,27.38,.86-4.55,2.05-9.05,2.58-13.6,1.08-9.1-2.51-18.47-9.14-24.74-3.83-3.56-8.05-6.39-9.76,.71h0Z"/><path class="d" d="M221.59,2.43c-.84-.68-1.67-1.42-2.58-1.56-.9-.15-1.83,.25-2.64,.81-1.68,1.13-2.97,2.76-3.88,4.72,.12-4.38,6.39-9.53,9.1-3.97h0Z"/><path class="d" d="M219,8.34c-.87-1.32-2.93-2.27-4.32-2.75,0,.02,.13-.04,.13-.05,.01,0-.18,.23-.25,.28-1.68,1.53-3.4,3.36-3.64,5.71-.14,2.59,.23,5.28,.1,7.9-.93-5.46-2.61-9.85,2.48-13.82l.52-.43c.17-.13,.34-.4,.64-.38,1.07,.21,1.84,.92,2.64,1.48,.66,.58,1.48,1.17,1.7,2.06h0Z"/><path class="d" d="M218.48,11.71c-.24-.67-.94-.99-1.57-1-2.02,.19-3.04,2.48-3.77,4.14-1.9,5.11-.56,10.74,.51,15.9,.63,2.64,1.61,5.2,3.22,7.42-.97-.97-1.76-2.13-2.42-3.35-1.87-3.73-2.67-7.87-3.15-12-.24-2.76-.04-5.68,1.14-8.27,.9-1.75,2.21-4.19,4.49-4.11,.71,.07,1.43,.55,1.55,1.26h0Z"/><path class="d" d="M220.78,9.73c3.19-6.29,10.22-1.16,12.57,3.11,.31,.7,.5,1.47,.41,2.21-.23-1.49-1.23-2.58-2.26-3.55-3.2-2.9-7.09-6.08-10.72-1.78h0Z"/><path class="d" d="M245.47,48.85c2.07-2.62,1.32-6.04,1.3-9.14-.06-3.19,.26-6.54,1.85-9.48,3.21-5.62,8.43-9.87,14.11-12.77-1.33,.87-2.63,1.79-3.85,2.8-3.62,2.94-7.13,6.35-9.38,10.44-1.49,2.69-1.84,5.89-1.96,9.02-.13,3.04,.36,6.81-2.07,9.14h0Z"/><path class="d" d="M259.85,19.48c2.63-2.78,11.44-7.66,11.3-.52-.04,1.49,.83,2.74,1.44,4.28,1.17,3.04,1.32,6.46,.35,9.55-.95,3.06-2.93,5.81-5.6,7.56,4.76-4,6.65-10.97,4.32-16.75-.56-1.44-1.52-2.98-1.45-4.62-.01-.8,0-1.55-.3-2.09-1.84-2.61-8.09,1.12-10.06,2.58h0Z"/><path class="d" d="M268.14,39.85c-3.82,4.01-8.29,7.35-13.22,9.87,4.16-3.67,8.53-6.92,13.22-9.87h0Z"/><path class="d" d="M270.61,17.15c.85,3.52-2.3,6.63-5.22,8,2.08-2.61,4.56-4.58,5.22-8h0Z"/><path class="d" d="M270.32,16.06c3.34-.04,6.5,1.95,8.37,4.68,3.97,5.73,1.94,13.71-2.59,18.49-2.21,2.44-4.76,4.58-7.6,6.19,2.59-1.95,4.97-4.18,7.01-6.69,2.04-2.48,3.55-5.35,4.08-8.49,1.37-6.25-2.62-13.43-9.27-14.18h0Z"/><path class="d" d="M272.78,42.47c-3.34,3.59-8.08,5.33-11.67,8.67,2.6-4.32,7.54-6.2,11.67-8.67h0Z"/></g><g><g><path class="e" d="M118.54,86.99h182.22l11.59,57.58s-31.25-47.4-83.56-54.42h-46.69l1.05,180.81s-2.39,27.99,22.47,29.49c28.42,1.71,80.7-.2,78.55-45.04,0,0,14.95,9.66,10.74-23.34,0,0,.47-4.24-1.51-24.65-1.18-12.21-4.23-14,3.7-14.68,6.86-.59,2.24,19.19,11.52,18.66,0,0,3.57,15.88,4.27,23.6,.7,7.72,9.56-6.86,9.56-6.86l2.61,126.36s-.64,32.13,29.56,32.13h-91.02s21.97,0,21.89-29.86c-.08-31.82-.69-53.45-.69-53.45l-168.43,.92s29.72,.69,27.88-36.17c-1.84-36.86-.92-158.29-.92-158.29,0,0,.45-21.58-24.77-22.77Z"/><polygon class="e" points="283.15 174.85 284.76 303.31 324.41 323.63 323.54 174.25 283.15 174.85"/><path class="e" d="M243.73,172.39h149.99l7.42,44.8s-24.93-36.29-66.67-41.64h-38.44s-37.24,1.69-52.31,.78c0,0,7.24-3.52,0-3.94Z"/><path class="e" d="M366.68,172.39H216.69l-7.2,43.47s23.38-33.29,66.44-40.31h38.44s31.54-1.97,52.31-3.16Z"/></g><text class="f" transform="translate(217.15 324.42)"><tspan class="i" x="0" y="0">ERES</tspan><tspan class="h" x="33.97" y="0"> </tspan><tspan class="g" x="36.42" y="0">TÚ </tspan></text></g></g></g></svg>